<svg viewBox="131.5 78.94736842105249 1841.0000000000005 1842.105263157895" xmlns="http://www.w3.org/2000/svg" xmlns:xlink="http://www.w3.org/1999/xlink" overflow="visible" width="1841.0000000000005px" height="1842.105263157895px"><defs><path d="M0,0 L1800,0 L1800,1000 C1800,1497.05627 1397.05627,1900 900,1900 C402.943725,1900 6.08718376e-14,1497.05627 0,1000 L0,0 L0,0 Z" id="masterspot-illustrationavatar-path-1"/><path d="M865,2.49928592 L1007.5,109.96858 C1138.32752,151.43863 1246.24007,245.063842 1305.75177,368.732607 L1435,637.317909 L1435,637.317909 L1542.5,397.386461 L1730,482.362182 L1504.20805,1013.01971 C1486.90934,1053.67525 1439.92814,1072.60969 1399.2726,1055.31098 C1384.49839,1049.02463 1371.95759,1038.43813 1363.28118,1024.9283 L1162.5,712.296487 L1162.5,712.296487 C1210.83333,970.556032 1236.66667,1136.342 1240,1209.65438 C1243.33333,1282.96677 1219.16667,1324.62154 1167.5,1334.61868 L122.250423,1334.61868 C67.0219478,1334.61868 22.2504227,1289.84716 22.2504227,1234.61868 C22.2504227,1227.96104 22.915281,1221.32004 24.2351011,1214.79454 L204.680454,322.629488 C220.336599,245.221757 276.28264,182.144828 351.267391,157.358564 L540,94.9728649 L540,94.9728649 L677.5,0 L811.142874,126.556341 L865,2.49928592 Z" id="masterspot-illustrationavatar-path-3"/></defs><g id="Master/Spot Illustration/Avatar" stroke="none" stroke-width="1" fill="none" fill-rule="evenodd"><g id="Character" transform="translate(152.000000, 0.000000)"><mask id="masterspot-illustrationavatar-mask-2" fill="#fff"><use xlink:href="#masterspot-illustrationavatar-path-1"/></mask><g id="Mask"/><circle id="Oval" fill="#0068bd" mask="url(#masterspot-illustrationavatar-mask-2)" cx="900" cy="1000" r="900"/><g mask="url(#masterspot-illustrationavatar-mask-2)"><g transform="translate(-740.000000, -1826.000000) scale(2.5 2.499286111111111)" id="Master/Character/Bust"><defs><path d="M346,1 L403,44 C455.330837,60.5927043 498.49333,98.0479325 522.293031,147.519222 L574,255 L574,255 L617,159 L692,193 L638.025428,319.887591 C620.730898,360.544906 573.751646,379.484186 533.09433,362.189656 C518.03103,355.782133 505.295877,344.907933 496.607485,331.034533 L454,263 L454,263 L473.56662,500.594673 C474.507448,512.019006 472.594589,523.498081 468,534 L468,534 L468,534 L122.243501,534 C67.0150256,534 22.2435006,489.228475 22.2435006,434 C22.2435006,427.344215 22.9079885,420.705057 24.2270788,414.181295 L66.6882657,204.183034 C82.3396526,126.776718 138.279412,63.6979364 213.259839,38.9060209 L216,38 L216,38 L271,0 L324.45715,50.637 L346,1 Z" id="mastercharacterbust-path-1"/></defs><g id="Master/Character/Bust" stroke="none" stroke-width="1" fill="none" fill-rule="evenodd"><g id="Head" transform="translate(560.999650, 1072.000000)" fill="#b2efff"><path d="M173.4931,66.499221 C182.1061,110.758221 197.9031,184.720221 112.0001,190.645221 C47.3491,195.103221 34.1221,133.336221 28.0001,98.645221 C19.0001,47.645221 36.0001,13.645221 84.0001,2.64522101 C149.3581,-12.333779 168.3391,40.016221 173.4931,66.499221"/><path d="M140,217 L140,172 L66,172 L64,214 L-6.39488462e-13,246.644721 L37.2,279.966721 C78.318,316.799721 141.503,313.346721 178.363,272.252721 L201.333,246.644721 L140,217 Z" id="Neck"/></g><g id="Hair" transform="translate(403.999650, 878.000000) scale(1 1)"><g id="Hair/Pompadour 1" stroke="none" stroke-width="1" fill="none" fill-rule="evenodd"><path d="M255.980519,409.370546 C255.980519,409.370546 67.0772008,342.349782 113.291278,273.85075 C50.6123983,261.18306 53.1764838,186.725315 111.969206,204.150624 C111.969206,204.150624 49.874084,126.038396 154.909297,145.867005 C202.472748,55.7371674 302.22301,60.5448787 280.898626,106.81089 C320.382873,78.2106295 472.452263,59.3760672 454.631536,159.617793 C438.522052,250.239645 248.714128,211.961625 248.714128,211.961625 C248.714128,211.961625 245.410616,276.855152 196.526205,254.623244 C235.502305,296.483393 274.477293,388.064783 255.980519,409.370546" id="Hair" fill="#b2efff"/></g></g><g id="Face" transform="translate(592.999650, 1122.000000) scale(1 1)" fill="#000000"><defs><path d="M16,0.828427125 C24.836556,0.828427125 32,7.99187113 32,16.8284271 C32,25.6649831 24.836556,32.8284271 16,32.8284271 C7.163444,32.8284271 0,25.6649831 0,16.8284271 C0,7.99187113 7.163444,0.828427125 16,0.828427125 Z" id="facedark-glasses-path-1"/><path d="M16.8284271,0.828427125 C25.6649831,0.828427125 32.8284271,7.99187113 32.8284271,16.8284271 C32.8284271,25.6649831 25.6649831,32.8284271 16.8284271,32.8284271 C7.99187113,32.8284271 0.828427125,25.6649831 0.828427125,16.8284271 C0.828427125,7.99187113 7.99187113,0.828427125 16.8284271,0.828427125 Z" id="facedark-glasses-path-3"/></defs><g id="Face/Dark Glasses" stroke="none" stroke-width="1" fill="none" fill-rule="evenodd"><path d="M139.505488,21.7624637 L147.358805,20.2375363 L147.914623,23.1292784 C150.492,36.6861902 151.956285,46.6187181 152.640849,56.8252335 C153.601715,71.1512888 152.68093,83.6925106 149.422756,94.7127057 C141.400988,121.844902 119.647922,138.009871 81.4351761,140.907001 L80.2721732,140.990729 L79.7278268,133.009271 C115.453825,130.572709 134.63761,116.504402 141.751032,92.4445228 C144.707273,82.445563 145.561191,70.815079 144.658782,57.3606006 C143.998859,47.5214545 142.57044,37.8441959 140.038812,24.5363568 L139.505488,21.7624637 Z" id="Stroke-9" fill="#000000" fill-rule="nonzero"/><g id="Group" transform="translate(85.000000, 41.000000) rotate(-5.000000) translate(-85.000000, -41.000000) translate(12.000000, 17.000000)"><path d="M122,0 C135.254834,0 146,10.745166 146,24 C146,37.254834 135.254834,48 122,48 C110.108321,48 100.236654,39.3512987 98.3319809,28.0008768 L96.6680191,28.0008768 C94.7633455,39.3512987 84.891679,48 73,48 C61.108321,48 51.2366545,39.3512987 49.3319809,28.0008768 L15,28 C11.2145483,28 8.13090132,31.0047834 8.00405902,34.7593502 L8,35 C8,37.209139 6.209139,39 4,39 C1.790861,39 0,37.209139 0,35 C0,26.8205929 6.54678637,20.1702698 14.6861718,20.0032178 L15,20 L49.3318133,20.000122 C51.2360754,8.64920863 61.1079722,0 73,0 C84.8920278,0 94.7639246,8.64920863 96.6681867,20.000122 L98.3318133,20.000122 C100.236075,8.64920863 110.107972,0 122,0 Z" id="Glasses" fill="#1bceff"/><g id="Path" transform="translate(106.000000, 7.171573)"><mask id="facedark-glasses-mask-2" fill="#fff"><use xlink:href="#facedark-glasses-path-1"/></mask><use id="Mask" fill="#006dc7" xlink:href="#facedark-glasses-path-1"/><path d="M29.8284271,5.82842712 L35.4852814,11.4852814 L8.48528137,38.4852814 L2.82842712,32.8284271 L29.8284271,5.82842712 Z M25,-3 L30.6568542,2.65685425 L3.65685425,29.6568542 L-2,24 L25,-3 Z" id="Combined-Shape" fill-opacity=".5" fill="#ffffff" fill-rule="nonzero" mask="url(#facedark-glasses-mask-2)"/></g><g id="Path" transform="translate(56.171573, 7.171573)"><mask id="facedark-glasses-mask-4" fill="#fff"><use xlink:href="#facedark-glasses-path-3"/></mask><use id="Mask" fill="#006dc7" xlink:href="#facedark-glasses-path-3"/><path d="M30.8284271,5.82842712 L36.4852814,11.4852814 L9.48528137,38.4852814 L3.82842712,32.8284271 L30.8284271,5.82842712 Z M25,-2 L30.6568542,3.65685425 L3.65685425,30.6568542 L-2,25 L25,-2 Z" id="Combined-Shape" fill-opacity=".5" fill="#ffffff" fill-rule="nonzero" mask="url(#facedark-glasses-mask-4)"/></g></g></g></g><g id="Upper Body Bust" transform="translate(100.000000, 1160.000000) scale(1 1)"><g id="Upper Body Bust/Hoodie" stroke="none" stroke-width="1" fill="none" fill-rule="evenodd"><path d="M861.268822,52.8823996 L861.268822,52.8823996 C857.47125,51.3038757 853.113892,53.0293266 851.400871,56.7904077 L834.22702,94.4828446 L841.102794,39.9314717 C841.66632,35.455848 838.479652,31.3833318 834.026294,30.8923192 C829.875895,30.4352129 826.073336,33.2645002 825.286643,37.3947826 L815.161863,90.583627 L810.530222,28.6997157 C810.149966,23.6301049 805.839984,19.7811188 800.796919,20.0096719 C795.993227,20.226923 792.138306,24.0846997 791.890204,28.9207341 L788.702289,90.9352472 L775.301075,36.3964322 C774.180255,31.835415 769.634639,29.0249644 765.089023,30.0823368 C761.030882,31.0266884 758.240677,34.7840021 758.488779,38.9720506 L761.878666,96.405454 L763.00946,115.577549 C754.096512,107.269264 744.213599,99.0727448 733.59137,91.8230884 C730.296235,89.5752303 725.852851,90.1315438 723.151165,93.0751077 C720.680125,95.7675143 720.297376,99.789799 722.213616,102.905406 L749.693024,147.603876 C753.777346,154.246988 759.462483,159.600407 766.096389,163.263536 L759.450015,194.189795 L822.593684,204 L853.002932,103.922593 L865.663582,62.2581029 C866.818064,58.4593482 864.915538,54.3981341 861.268822,52.8823996" id="Hand" fill="#b2efff"/><path d="M802.497935,124.420357 C806.032824,127.350302 809.011618,130.489863 811.458914,133.639502 C812.21563,134.613386 812.876411,135.531523 813.44313,136.377575 L813.680256,136.735708 C813.937383,137.128685 814.142173,137.456433 814.295391,137.711763 L814.486633,138.039544 L816.447089,141.526177 L809.473823,145.447089 L807.513367,141.960456 C807.446481,141.841501 807.271135,141.55178 806.985907,141.115855 C806.484717,140.349868 805.870397,139.485768 805.141741,138.547998 C803.036254,135.838262 800.455714,133.118448 797.392722,130.579643 C788.209111,122.967673 776.785643,118.584983 762.859092,119.029772 L762.172161,119.055546 L758.175867,119.227706 L757.831546,111.23512 L761.827839,111.062959 C778.160864,110.359331 791.709296,115.478037 802.497935,124.420357 Z M830.660413,88.7507531 C834.374175,89.5912173 837.956495,90.6299049 841.391712,91.8787488 L842.417849,92.2597186 L846.15813,93.6775674 L843.322433,101.15813 L839.582151,99.7402814 C836.195562,98.4565086 832.62615,97.3979286 828.894583,96.5534348 C815.187176,93.4513012 800.457651,93.3719259 786.715042,95.1114553 C785.01384,95.3267922 783.468992,95.5552853 782.100095,95.7844906 L781.008243,95.9741108 L779.829191,96.1993515 L775.916079,97.0285425 L774.257697,89.2023193 L778.554606,88.2949384 C778.956433,88.2155873 779.518752,88.1108345 780.231114,87.9875783 C781.837822,87.7095782 783.673273,87.4326456 785.710424,87.1747846 C800.299112,85.3281591 815.908679,85.4122768 830.660413,88.7507531 Z" id="Combined-Shape" fill="#000000" fill-rule="nonzero"/><path d="M396,598 L396,632 C396,637.522847 400.477153,642 406,642 L720,642 C725.522847,642 730,637.522847 730,632 L730,598 L730,598 L396,598 Z" id="Path-22" fill="#16a8d0"/><path d="M711.778494,443.010285 C711.774493,442.922216 711.800501,442.830145 711.836511,442.736072 C733.361049,444.297286 753.115049,438.600856 769.267956,426.062105 C808.804965,395.371237 816.097179,334.32176 823.816524,269.687496 C826.07421,250.781793 828.380911,231.465772 831.497857,214.023207 C834.350724,198.064796 824.794821,182.5097 809.254101,177.91913 L784.487578,170.60344 C771.353589,166.723423 758.84579,175.19301 754.950607,188.327224 C737.800398,246.143186 740.912343,294.822042 740.912343,294.825045 C732.107669,225.946479 696.711918,139.54829 636.888747,135.982517 C636.888747,121.026886 621.941207,120.528498 621.941207,120.528498 C618.952299,107.069031 600.612729,101.585767 600.612729,101.585767 C600.612729,112.640364 598.37805,123.579871 594.044734,133.748779 L589.056218,145.453882 C589.056218,145.453882 556.669381,96.1025028 525.869026,87.5738703 C469.25583,71.8976793 443.321953,99.9314805 460.570192,120.184231 C423.993082,104.968398 406.936902,151.463556 431.182266,165.184226 C431.203272,165.196235 431.206273,165.184226 431.206273,165.184226 C396.635773,191.986069 378.835366,236.107381 386.446678,280.422844 L395.264356,331.761769 C401.447234,367.756762 392.952223,509.559177 383.057649,563.886287 C369.157327,640.20734 495.195609,619.190996 589.224169,619.190996 C683.252729,619.190996 749.272782,640.20734 745.97288,583.507546 C744.006501,549.720706 713.989165,491.621088 711.778494,443.010285 Z" id="Hoodie" fill="#18bae7"/><path d="M690.42708,233.937205 L690.780556,234.544588 C691.009652,234.947809 691.302423,235.477635 691.652887,236.132873 L692.126118,237.028846 C692.928458,238.566609 693.797911,240.326553 694.719608,242.305706 C697.859095,249.047102 700.990651,256.988808 703.908349,266.089467 C715.303901,301.633603 720.290357,343.914454 715.303791,392.185958 L715.149627,393.650564 C711.406233,428.566909 715.960356,462.610801 726.424656,494.611614 L726.796435,495.740204 L719.203565,498.259796 C708.262483,465.288494 703.387691,430.157921 707.065015,394.043463 L707.195212,392.797749 C712.312723,345.06653 707.470984,303.405806 696.29029,268.531838 C693.589565,260.107944 690.708673,252.738937 687.82759,246.461977 L687.467466,245.683048 C686.511318,243.629918 685.620944,241.839233 684.815966,240.315065 L684.598558,239.905994 C684.400535,239.535764 684.218282,239.201698 684.052744,238.90399 L683.57292,238.062795 L690.42708,233.937205 Z M741.085798,271.258919 L742.003732,275.612505 C742.041938,275.802558 742.088047,276.035588 742.141449,276.310505 L742.377406,277.554248 C742.45936,277.995936 742.544487,278.464503 742.632403,278.959264 L742.721233,279.462731 C743.316957,282.862851 743.911744,286.723515 744.466394,290.975347 C746.554256,306.980454 747.516237,323.858605 746.737489,340.546406 L746.653789,342.214512 L746.439277,346.208756 L738.450789,345.779732 L738.665301,341.785488 C739.561641,325.095542 738.632248,308.097926 736.533606,292.010177 L736.300351,290.262941 C735.829643,286.816661 735.33511,283.661989 734.841267,280.843354 L734.591665,279.448117 C734.4847,278.863055 734.383255,278.325128 734.288238,277.835979 L734.08656,276.827642 L733.258919,272.914202 L741.085798,271.258919 Z" id="Combined-Shape" fill="#000000" fill-rule="nonzero"/><path d="M523.832867,82.7747217 L527.529072,84.3037942 C547.491753,92.5620965 564.554257,105.334635 578.910113,121.37845 C586.634713,130.011307 593.190009,139.153229 598.649791,148.380402 C601.491615,146.378735 603.979309,143.781086 606.131572,140.700652 C608.077382,137.915704 609.630355,134.909011 610.817994,131.902706 C611.173135,131.00373 611.471838,130.163437 611.717097,129.399486 L611.938168,128.683925 C611.983925,128.52954 612.021216,128.398926 612.050317,128.293555 L612.113318,128.054641 L619.886682,129.945359 C619.632872,130.988857 619.107734,132.692215 618.258441,134.842052 C616.85512,138.394316 615.020558,141.946192 612.689466,145.282576 C609.863212,149.327661 606.509908,152.76093 602.581251,155.387509 C604.155879,158.354447 605.522934,161.148011 606.689116,163.724563 L607.002956,164.423565 C607.723695,166.042025 608.242778,167.294386 608.568279,168.130741 L608.750943,168.610601 L610.140342,172.361543 L602.638457,175.140342 L601.161323,171.159347 C601.096667,170.992816 601.005406,170.762296 600.887135,170.470537 L600.591303,169.752004 C600.382193,169.251391 600.149255,168.707947 599.892185,168.123775 L599.694852,167.678042 C598.338243,164.631703 596.665083,161.226982 594.662564,157.554022 C588.930133,147.039772 581.724014,136.520501 572.948342,126.712987 C559.582659,111.775769 543.796058,99.8747452 525.423537,92.0949292 L524.470928,91.6962058 L520.774722,90.1671333 L523.832867,82.7747217 Z M487.560324,156.027896 L488.284624,156.270129 L492.072729,157.554753 L489.503481,165.130963 L485.715376,163.846339 C468.785849,158.105191 453.745947,159.105987 441.123009,164.208481 C438.866018,165.12081 436.894094,166.093196 435.225883,167.057135 C434.750633,167.331748 434.332707,167.587084 433.973461,167.818124 L433.370703,168.221765 L430.148938,170.592468 L425.407532,164.148938 L428.629297,161.778235 C429.126835,161.412127 429.996752,160.839157 431.223403,160.130365 C433.205717,158.984929 435.511442,157.84794 438.124895,156.791519 C452.252851,151.080661 468.993622,149.905522 487.560324,156.027896 Z M484.913739,117.267206 C498.56786,119.011225 512.039155,122.472618 524.677229,128.065515 C539.844803,134.777827 552.998342,144.222628 563.507462,156.758587 L564.088578,157.458212 L566.630366,160.54679 L560.45321,165.630366 L557.911422,162.541788 C548.143371,150.672433 535.798777,141.735659 521.439738,135.38116 C509.565337,130.12622 496.832445,126.854557 483.900147,125.202736 C475.437148,124.121771 468.005073,123.853601 462.205085,124.052647 L461.216534,124.091927 C460.835803,124.109427 460.555465,124.125618 460.380387,124.137658 L456.313033,124.444961 L455.709747,116.467741 L459.93486,116.149674 C460.206593,116.13214 460.583486,116.1116 461.060756,116.090939 L461.307734,116.080612 C467.609695,115.826109 475.693753,116.089553 484.913739,117.267206 Z" id="Combined-Shape" fill="#000000" fill-rule="nonzero"/><path d="M696.782906,458 L775.365323,472.979315 C789.414943,468.151958 804.986638,471.471579 815.83268,481.604528 L843.651169,507.590218 C850.692022,514.168431 852.043641,524.815631 846.866779,532.936597 C842.475019,539.826962 834.857623,544 826.673709,544 L784.993103,544 C771.388675,544 758.038929,540.327206 746.358653,533.368808 L728.719421,522.861677 L683,514.162428 C683,514.162428 695.958699,498.099584 696.782906,458" id="Hand" fill="#b2efff"/><path d="M792.873619,506.456421 L796.454248,508.829521 L797.195324,509.334878 C797.454922,509.513581 797.735234,509.708126 798.035196,509.918095 C799.455315,510.912155 801.034288,512.054074 802.732897,513.328529 C807.585434,516.969352 812.438698,520.952549 816.981692,525.16106 C821.966608,529.778956 826.273977,534.392049 829.711296,538.944899 L830.220344,539.627368 L832.592976,542.847712 L826.152288,547.592976 L823.779656,544.372632 C820.593959,540.048725 816.436907,535.561558 811.545013,531.029835 C807.22279,527.025841 802.577608,523.213422 797.931698,519.727629 C796.305851,518.507767 794.797829,517.417161 793.447568,516.471999 L791.791401,515.33498 L788.456421,513.126381 L792.873619,506.456421 Z M802.375473,492.581429 L805.897022,494.478451 C806.274969,494.682047 806.919218,495.045886 807.7952,495.565846 L808.039824,495.711521 C809.683514,496.693462 811.508511,497.849653 813.470018,499.175008 C819.06527,502.955617 824.658785,507.348064 829.892327,512.318177 C836.402333,518.500504 841.890855,525.146188 846.026725,532.239061 L846.480682,533.028998 L848.451685,536.50968 L841.49032,540.451685 L839.519318,536.971002 C835.75796,530.32865 830.597229,524.020245 824.383352,518.119142 C819.494089,513.475979 814.241742,509.351442 808.991132,505.803701 C807.360425,504.701863 805.836099,503.728518 804.450167,502.888202 L803.936992,502.579328 C803.515847,502.327736 803.134336,502.104636 802.795372,501.910427 L802.102978,501.521549 L798.581429,499.624527 L802.375473,492.581429 Z" id="Combined-Shape" fill="#000000" fill-rule="nonzero"/><path d="M560.463994,367.275557 C579.892111,388.1604 628.037104,413.483096 673.574126,426.863044 C692.346979,432.377857 703.895739,451.107746 700.367783,470.257144 L700.256252,470.837545 L695.439748,494.904458 C689.081986,526.673649 657.267958,546.436758 625.979115,538.084071 C598.995823,530.881265 571.932374,521.185945 545.809098,508.623856 C514.126441,493.388387 485.353804,474.648401 460.476202,452.040203 L459.294503,450.960697 L464.705497,445.068232 C489.237237,467.595496 517.765368,486.261353 549.276086,501.414141 C574.920698,513.746052 601.518358,523.274505 628.042424,530.354727 C654.602935,537.445166 681.598474,520.911238 687.425227,494.148678 L687.595293,493.334575 L692.411784,469.267728 C695.468607,453.991683 686.3139,438.943598 671.319071,434.538637 C624.99273,420.926766 576.157766,395.348711 555.232087,373.388772 L554.60655,372.724443 L560.463994,367.275557 Z" id="Stroke-23" fill="#000000" fill-rule="nonzero"/></g></g></g></g></g></g></g></svg>