<svg viewBox="631.1999999999998 552.6315789473683 841.5999999999996 1447.3684210526317" xmlns="http://www.w3.org/2000/svg" overflow="visible" xmlns:xlink="http://www.w3.org/1999/xlink" width="841.5999999999996px" height="1447.3684210526317px"><g id="Master/Spot Illustration/Hand" stroke="none" stroke-width="1" fill="none" fill-rule="evenodd"><rect id="Left-Background" fill="#1899b1" x="652" y="1900" width="800" height="100" rx="10"/><g id="Hand" transform="translate(552.000000, 1000.000000) scale(1 1)"><defs><path d="M28,24.4704987 C104,36.4704987 149,-27.5295013 235,14.4704987 C235,14.4704987 237.666667,129.137165 243,358.470499 L0,358.470499 C18.6666667,135.803832 28,24.4704987 28,24.4704987 Z" id="handthumbs-up-path-1"/></defs><g id="Hand/Thumbs up" stroke="none" stroke-width="1" fill="none" fill-rule="evenodd"><g id="Hand" transform="translate(477.500000, 522.000000) rotate(30.000000) translate(-477.500000, -522.000000) translate(259.000000, 258.000000)"><path d="M436.764083,429.447311 L382.792513,335.991278 L335.330819,221.697766 C335.296651,221.615486 335.262593,221.53316 335.228646,221.450789 L255.924974,29.0274717 C252.472635,20.6506776 242.883228,16.6586179 234.506434,20.110957 C231.499301,21.3502904 228.928429,23.4555327 227.120433,26.1592236 C216.201221,42.4878978 212.403787,62.5596696 216.603307,81.7486983 L235.023662,165.917538 L235.023662,165.917538 L147.67929,165.917538 C132.610623,165.917538 117.736785,169.322967 104.169231,175.879353 L67.8748182,193.418268 C50.3031881,201.909583 42.942139,223.037775 51.4334547,240.609405 C54.2765246,246.492754 58.6952284,251.472572 64.198515,254.995451 L68.5156281,257.759012 L68.5156281,257.759012 L64.8935522,260.275362 C53.7981409,267.983631 51.0523203,283.227027 58.7605903,294.322438 C63.3324717,300.90328 70.8375215,304.827767 78.8506095,304.827767 L78.8506095,304.827767 L78.8506095,304.827767 C67.6825063,308.423295 61.5437212,320.391582 65.1392491,331.559686 C67.3342172,338.377497 72.8169428,343.630265 79.7224907,345.531274 L90.3339222,348.452467 L90.3339222,348.452467 C80.1302299,355.495954 77.5683774,369.477555 84.6118646,379.681248 C88.232433,384.926258 93.9116834,388.385201 100.233247,389.195437 L131.673848,393.225185 L131.673848,393.225185 L184.781954,395.064629 C198.907456,395.553878 211.520175,404.047707 217.284389,416.952861 L266.70731,527.602886 L266.70731,527.602886 L436.764083,429.447311 Z" fill="#e4c2c2"/><path d="M158.631087,205.749057 C175.055477,205.749057 189.589134,216.384197 194.558024,232.038932 C197.986986,242.842046 192.657469,254.32881 182.54132,258.833578 C189.108932,264.156429 192.882078,272.631942 191.805064,281.645727 C190.547531,292.170307 184.150242,300.95148 175.306411,305.598673 C181.660417,310.58316 185.205136,318.764775 183.873086,327.312094 C181.763282,340.850003 170.80588,351.093401 157.445008,352.524654 C161.365412,357.29239 163.031325,363.804861 161.369022,370.23958 C157.906172,383.644161 145.900806,393.049494 132.091911,393.23626 L131.672915,393.239092 L100.662831,393.239092 L100.662831,385.239092 L131.672915,385.239092 C142.009791,385.239092 151.037827,378.246916 153.623307,368.238604 C155.280755,361.822679 151.423246,355.277918 145.007322,353.620471 C144.167098,353.403413 143.306222,353.278258 142.439832,353.246929 L142.006248,353.239092 L117.885054,353.239092 L117.884483,352.695689 L79.3493649,352.696152 L79.3493649,344.696152 L154.226663,344.696152 C165.07107,344.696152 174.298621,336.795277 175.968501,326.080211 C177.213806,318.089505 171.933319,310.588161 164.08697,308.998238 C163.158014,309.096651 162.21802,309.153432 161.268648,309.167623 L160.794954,309.171162 L73.7009619,309.171162 L73.7009619,301.171162 L146.777483,301.170689 L146.777936,300.696152 L161.083806,300.696152 C162.141192,300.696152 163.19717,300.768866 164.244273,300.913715 C174.445794,299.392912 182.60473,291.215351 183.861566,280.696596 C185.005258,271.124774 178.172908,262.438133 168.601086,261.294441 C168.085667,261.232856 167.567844,261.194304 167.049161,261.178877 L166.530248,261.171162 L140.230374,261.171162 L140.229483,260.748689 L58.2044827,260.749057 L58.2044827,252.749057 L173.54912,252.749057 C174.990526,252.749057 176.423339,252.527121 177.7972,252.091051 C185.188863,249.744901 189.279059,241.850844 186.932908,234.459181 C183.06116,222.261046 171.817574,213.931653 159.052458,213.75202 L158.631087,213.749057 L113.28645,213.749057 L113.28645,205.749057 L158.631087,205.749057 Z M249.289026,141.455689 L254.164766,147.798177 C211.267287,180.775294 198.103825,225.807532 214.603731,283.739792 L215.112808,285.499264 L207.437298,287.754602 C189.447372,226.530135 202.96422,177.837557 247.917192,142.521769 L249.289026,141.455689 Z" id="Combined-Shape" fill="#000000" fill-rule="nonzero"/></g><g id="Striped-Sleeve" transform="translate(356.000000, 641.529501)"><mask id="handthumbs-up-mask-2" fill="#fff"><use xlink:href="#handthumbs-up-path-1"/></mask><use id="Sleeve" fill="#f8e9e9" xlink:href="#handthumbs-up-path-1"/><path d="M254.787661,331.028599 L256,331.485968 L250.109448,346.405888 C221.879286,335.678717 196.024423,331.562181 169.663947,332.64235 L168.432289,332.695793 C148.99874,333.586518 132.661522,336.608515 102.316753,343.995907 L90.6742699,346.83788 C69.786461,351.894724 58.7842601,354.184217 44.9690299,356.10079 C25.2189814,358.840694 6.58028153,359.283547 -12.6270575,357.04816 L-14,356.883929 L-11.9734959,341.007927 C5.76553797,343.187235 22.9699231,342.890612 41.3079985,340.445786 L42.6855059,340.258401 C56.4844337,338.34409 67.5036529,336.001674 90.0036009,330.517478 L96.4341528,328.94401 C129.696849,320.803933 147.168765,317.55018 168.983339,316.656288 C197.188059,315.500548 224.91252,319.83947 254.787661,331.028599 Z M254.79361,277.027612 L256.005949,277.484982 L250.115397,292.404902 C221.885235,281.677731 196.030372,277.561195 169.669896,278.641364 L168.438238,278.694807 C149.004689,279.585532 132.667471,282.607529 102.322702,289.994921 L90.6802189,292.836894 C69.79241,297.893738 58.7902092,300.18323 44.974979,302.099804 C25.2249305,304.839708 6.58623057,305.282561 -12.6211084,303.047174 L-13.994051,302.882943 L-11.9675469,287.006941 C5.77148701,289.186249 22.9758722,288.889626 41.3139475,286.4448 L42.6914549,286.257415 C56.4903828,284.343104 67.509602,282.000688 90.0095499,276.516492 L96.4401018,274.943024 C129.702798,266.802947 147.174714,263.549194 168.989288,262.655302 C197.194008,261.499562 224.918469,265.838484 254.79361,277.027612 Z M254.79361,223.026626 L256.005949,223.483996 L250.115397,238.403916 C221.885235,227.676745 196.030372,223.560209 169.669896,224.640377 L168.438238,224.693821 C149.004689,225.584546 132.667471,228.606543 102.322702,235.993935 L90.6802189,238.835908 C69.79241,243.892752 58.7902092,246.182244 44.974979,248.098817 C25.2249305,250.838722 6.58623057,251.281575 -12.6211084,249.046187 L-13.994051,248.881957 L-11.9675469,233.005955 C5.77148701,235.185263 22.9758722,234.88864 41.3139475,232.443814 L42.6914549,232.256429 C56.4903828,230.342117 67.509602,227.999702 90.0095499,222.515505 L96.4401018,220.942038 C129.702798,212.801961 147.174714,209.548208 168.989288,208.654316 C197.194008,207.498576 224.918469,211.837498 254.79361,223.026626 Z M254.79361,169.02564 L256.005949,169.48301 L250.115397,184.40293 C221.885235,173.675758 196.030372,169.559223 169.669896,170.639391 L168.438238,170.692835 C149.004689,171.58356 132.667471,174.605556 102.322702,181.992949 L90.6802189,184.834922 C69.79241,189.891766 58.7902092,192.181258 44.974979,194.097831 C25.2249305,196.837736 6.58623057,197.280589 -12.6211084,195.045201 L-13.994051,194.880971 L-11.9675469,179.004969 C5.77148701,181.184277 22.9758722,180.887654 41.3139475,178.442828 L42.6914549,178.255443 C56.4903828,176.341131 67.509602,173.998716 90.0095499,168.514519 L96.4401018,166.941052 C129.702798,158.800975 147.174714,155.547222 168.989288,154.65333 C197.194008,153.49759 224.918469,157.836512 254.79361,169.02564 Z M254.79361,115.024654 L256.005949,115.482024 L250.115397,130.401944 C221.885235,119.674772 196.030372,115.558237 169.669896,116.638405 L168.438238,116.691849 C149.004689,117.582574 132.667471,120.60457 102.322702,127.991963 L90.6802189,130.833936 C69.79241,135.89078 58.7902092,138.180272 44.974979,140.096845 C25.2249305,142.83675 6.58623057,143.279602 -12.6211084,141.044215 L-13.994051,140.879985 L-11.9675469,125.003982 C5.77148701,127.18329 22.9758722,126.886667 41.3139475,124.441841 L42.6914549,124.254457 C56.4903828,122.340145 67.509602,119.997729 90.0095499,114.513533 L96.4401018,112.940065 C129.702798,104.799988 147.174714,101.546236 168.989288,100.652344 C197.194008,99.496604 224.918469,103.835526 254.79361,115.024654 Z M254.79361,61.023668 L256.005949,61.4810375 L250.115397,76.4009574 C221.885235,65.6737862 196.030372,61.5572507 169.669896,62.6374191 L168.438238,62.6908625 C149.004689,63.5815879 132.667471,66.6035842 102.322702,73.9909765 L90.6802189,76.8329495 C69.79241,81.8897937 58.7902092,84.1792861 44.974979,86.0958592 C25.2249305,88.8357637 6.58623057,89.2786164 -12.6211084,87.0432292 L-13.994051,86.8789987 L-11.9675469,71.0029963 C5.77148701,73.1823043 22.9758722,72.8856814 41.3139475,70.4408554 L42.6914549,70.2534707 C56.4903828,68.3391592 67.509602,65.9967434 90.0095499,60.5125471 L96.4401018,58.9390793 C129.702798,50.7990024 147.174714,47.5452495 168.989288,46.6513576 C197.194008,45.4956179 224.918469,49.83454 254.79361,61.023668 Z" id="Stripes" fill="#ffffff" fill-rule="nonzero" opacity=".5" mask="url(#handthumbs-up-mask-2)"/></g></g></g><g id="Object" transform="translate(652.000000, 350.000000) scale(1.6 1.6)"><defs><rect id="objectid-card-path-1" x="0" y="0" width="100" height="120" rx="5"/></defs><g id="Object/ID card" stroke="none" stroke-width="1" fill="none" fill-rule="evenodd"><g id="Group" transform="translate(100.000000, 129.000000)"><rect id="Rectangle" fill="#f5dfdf" x="0" y="42.925" width="300" height="200" rx="20"/><rect id="Rectangle" fill="#005eac" x="20" y="202.925" width="20" height="20" rx="10"/><rect id="Rectangle-Copy-4" fill="#1899b1" x="60" y="202.925" width="20" height="20" rx="10"/><rect id="Rectangle-Copy-5" fill="#21d4f4" x="100" y="202.925" width="20" height="20" rx="10"/><g id="Head" transform="translate(20.000000, 62.924532)"><mask id="objectid-card-mask-2" fill="#fff"><use xlink:href="#objectid-card-path-1"/></mask><use id="Mask" fill="#005eac" xlink:href="#objectid-card-path-1"/><g mask="url(#objectid-card-mask-2)"><g transform="translate(0.000000, 6.000000)"><g id="Head"><path d="M82.7977072,33.2496105 C86.5443563,52.571594 93.0195748,83.2157698 66.1145798,92.6522436 L66.1112624,104.857143 L97,114.142857 L85.2239179,136.126361 C66.8600652,156.673361 35.3809541,158.399861 14.8957426,139.983361 L14.8957426,139.983361 L0,114.142857 L28.2476485,103.357143 L29.0521952,89.3262655 C16.2298,79.8175693 12.4232501,61.3276203 10.3123023,49.3226105 C5.82845329,23.8226105 14.2979459,6.82261051 38.2118072,1.32261051 C70.7735188,-6.16688949 80.2299563,20.0081105 82.7977072,33.2496105 Z" fill="#e4c2c2"/></g><g id="Face" transform="translate(13.000000, 30.000000)"><path d="M73.4771078,25.6875688 L18.5742135,25.6875688 L10.7971721,25.6875688 L1.9857068,25.6875688 C0.888740912,25.6875688 0.000248182327,26.5881859 0.000248182327,27.6989973 C0.000248182327,28.8098088 0.888740912,29.7104259 1.9857068,29.7104259 L10.911336,29.7104259 C11.0384053,31.9788145 11.2726895,34.095843 11.5992974,36.0725745 L1.9857068,36.0725745 C0.888740912,36.0725745 0.000248182327,36.9731916 0.000248182327,38.084003 C0.000248182327,39.1948145 0.888740912,40.0954316 1.9857068,40.0954316 L12.4346791,40.0954316 C18.5230879,64.0957973 39.5292401,63.8047262 39.5292401,63.8047262 C68.5417541,61.7776259 74.1809529,43.9111116 73.4771078,25.6875688" id="Fill-1" fill="#f8e9e9"/><path d="M67.4149886,1.4318442 L71.3127851,0.663393891 L72.0066889,4.27923865 L72.1916026,5.25779523 C73.6151344,12.8364467 74.4119416,18.3886012 74.7151288,23.9869217 C75.3174977,35.1096018 73.6551149,44.1351964 68.9357392,51.1372557 C63.3235225,59.4640081 53.6518071,64.3715042 39.4105077,65.4504597 L38.9775539,65.481983 L38.7043165,61.4686608 C52.0455488,60.536438 60.7285639,56.1800921 65.6563798,48.8687737 C69.799884,42.7211255 71.3090714,34.5272761 70.7501747,24.207305 C70.4781759,19.1848753 69.7851036,14.1470698 68.5611309,7.46699075 L68.1071979,5.03881627 L67.4149886,1.4318442 Z" id="Stroke-9" fill="#000000" fill-rule="nonzero"/><path d="M42.027497,8.98039162 C42.6330619,13.100803 42.2831248,16.568003 40.1780423,16.8853059 C38.0729598,17.2026088 37.2326145,13.9154316 36.6270496,9.79502019 C36.0214847,5.67460876 35.8765462,2.28183162 37.9851033,1.9640259 C40.0941567,1.64571733 41.4219321,4.85998019 42.027497,8.98039162" id="Fill-11" fill="#000000"/><path d="M58.453345,8.6639939 C59.0589099,12.7844053 58.7089728,16.2516053 56.6038903,16.5689082 C54.4988078,16.8867139 53.6584625,13.5990339 53.0528976,9.47862248 C52.4473327,5.35821105 52.3023942,1.96593676 54.4109513,1.64762819 C56.5200047,1.32982248 57.8477801,4.54358248 58.453345,8.6639939" id="Fill-13" fill="#000000"/></g></g></g></g><rect id="Rectangle" fill="#005eac" x="140" y="62.925" width="140" height="20"/><rect id="Rectangle-Copy" fill="#000000" x="140" y="102.925" width="100" height="8"/><rect id="Rectangle-Copy-2" fill="#000000" x="140" y="130.925" width="80" height="8"/><rect id="Rectangle-Copy-3" fill="#000000" x="140" y="158.925" width="90" height="8"/><path d="M163.416408,3.17375597 C169.22223,6.076667 173.929905,10.7843418 176.832816,16.5901638 L190,42.9245324 L110,42.9245324 L123.167184,16.5901638 C130.576862,1.77080891 148.597053,-4.23592149 163.416408,3.17375597 Z M158.944272,12.1180279 C149.172089,7.23193622 137.312151,11.0967325 132.275032,20.7422262 L132.111456,21.0622998 L126.18,32.9245324 L173.819,32.9245324 L167.888544,21.0622998 C166.020003,17.3252189 163.029834,14.2706172 159.342043,12.3225013 L158.944272,12.1180279 Z" id="Path-39" fill="#dbbbbb" fill-rule="nonzero"/></g></g></g></g></svg>