<?xml version="1.0" standalone="no"?><svg xmlns="http://www.w3.org/2000/svg" viewBox="0 0 1440 320"><path fill="#1bceff" fill-opacity="1" d="M0,224L48,202.7C96,181,192,139,288,154.7C384,171,480,245,576,256C672,267,768,213,864,202.7C960,192,1056,224,1152,240C1248,256,1344,256,1392,256L1440,256L1440,320L1392,320C1344,320,1248,320,1152,320C1056,320,960,320,864,320C768,320,672,320,576,320C480,320,384,320,288,320C192,320,96,320,48,320L0,320Z" data-darkreader-inline-fill="" style="--darkreader-inline-fill: #008df0;"></path></svg>